<svg version="1.1" xmlns="http://www.w3.org/2000/svg" xmlns:xlink="http://www.w3.org/1999/xlink" viewBox="0 0 172 172"><g transform=""><g fill="none" fill-rule="nonzero" stroke="none" stroke-width="1" stroke-linecap="butt" stroke-linejoin="miter" stroke-miterlimit="10" stroke-dasharray="" stroke-dashoffset="0" font-family="none" font-weight="none" font-size="none" text-anchor="none" style="mix-blend-mode: normal"><path d="M0,172v-172h172v172z" fill="none"></path><g id="original-icon" fill="#343434"><path d="M26.875,26.875v118.25h118.25v-118.25zM37.625,37.625h96.75v96.75h-96.75zM90.68213,55.69214c-3.397,0 -5.3855,1.81541 -5.3855,5.20703c0,3.45612 1.99387,5.3855 5.3855,5.3855c3.45075,0 5.43798,-1.93475 5.43798,-5.3855c0,-3.397 -1.98723,-5.20703 -5.43798,-5.20703zM107.41602,61.36109c-0.645,6.493 -2.74915,9.12481 -7.95752,9.71069v5.33301c4.79988,0 4.61914,-0.18586 4.61914,0.57739v15.68408c0,6.7295 2.69867,9.45874 9.83667,9.45874c3.39163,0 7.13607,-0.96708 9.7107,-2.25708l-1.6377,-5.28052c-9.59437,3.62813 -9.1123,-2.92139 -9.1123,-3.91577v-14.27734h9.1123v-5.96289h-9.1123v-9.07031zM63.04077,71.02979c-6.22148,0.02721 -13.73145,2.51155 -13.73145,11.64233c0,4.386 2.23054,7.48746 5.15454,8.95484c-3.68725,3.38625 -5.44848,4.96591 -5.44848,7.19116c0,1.63938 0.70538,3.09214 2.63501,3.96826c-2.04787,1.935 -3.27539,3.40649 -3.27539,6.09936c0,4.68162 4.1516,7.43262 14.91773,7.43262c10.41675,0 16.45044,-3.86564 16.45044,-10.70801c0,-8.65913 -6.6136,-8.3069 -22.29785,-9.30127l1.98413,-3.17041c3.9775,1.11263 17.43725,1.46948 17.43725,-9.94165c0,-2.752 -1.11296,-4.68213 -2.22558,-6.02588l5.50097,-0.40942v-5.10205h-11.64233c-1.46334,-0.38028 -3.38516,-0.63895 -5.45898,-0.62988zM83.60645,71.08227l-0.65088,4.8606c3.68725,1.28462 3.97876,1.09969 3.97876,2.33057v17.61572c0,1.29 -0.06038,1.05846 -3.97876,1.58521v4.65063h17.02783v-4.65063l-3.04443,-0.40942c-0.87613,-0.11825 -0.93433,-0.24053 -0.93433,-1.17578v-24.80689zM63.53418,76.98218c7.31,0 7.48628,10.42456 -0.17847,10.42456c-7.72387,0 -7.3734,-10.42456 0.17847,-10.42456zM56.9729,104.37158c11.41112,0.82238 13.86792,0.5291 13.86792,2.81347c0,4.74075 -15.39014,4.73781 -15.39014,0.34643c0,-1.17175 0.75897,-2.16553 1.52222,-3.15991z"></path></g><path d="" fill="none"></path></g></g></svg>